<svg width="64" height="64" viewBox="0 0 64 64" fill="none" xmlns="http://www.w3.org/2000/svg">
<path d="M49.9004 8.80001C40.1004 -4.19999 12.3004 5.50001 10.2004 4.60001C10.2004 4.60001 9.90041 6.50001 11.0004 7.70001C9.60041 8.70001 7.90041 7.00001 7.90041 7.00001C7.90041 7.00001 6.10041 11.2 8.00041 13.8C5.00041 17.7 8.60041 38 8.60041 38H54.5004C54.5004 38 60.0004 22.1 53.7004 11.3C52.4004 8.80001 51.0004 10.3 49.9004 8.80001Z" fill="#DBB471"/>
<path d="M54.9996 29.6C54.7996 30.7 54.5996 31.7 54.2996 32.3C53.7996 33.3 52.6996 33.9 52.6996 33.9C52.6996 33.9 52.9996 31.8 52.8996 28.8C51.4996 8.7 45.5996 18.3 31.9996 18.3C18.3996 18.3 12.4996 8.7 11.1996 28.9C11.0996 31.8 11.3996 34 11.3996 34C11.3996 34 10.2996 33.4 9.79961 32.4C9.49961 31.8 9.29961 30.8 9.09961 29.7C7.29961 29.2 5.09961 29.6 5.09961 34.9C5.09961 38.2 6.29961 40.8 10.1996 41.1C11.8996 54.3 14.8996 56.4 24.7996 61.1C27.2996 62.3 28.9996 62 31.9996 62C34.9996 62 36.6996 62.3 39.2996 61.1C49.2996 56.4 52.2996 54.3 53.8996 41.1C57.7996 40.8 58.9996 38.1 58.9996 34.9C58.9996 29.6 56.6996 29.2 54.9996 29.6Z" fill="#FFE1BD"/>
<path d="M41 48.9C41 52.3 36.5 54 32 54C27.5 54 23 52.3 23 48.9C23 48.9 23 48 23.9 48H40.1C41 48 41 48.9 41 48.9Z" fill="#664E27"/>
<path d="M20 28.6C15 28.6 13 30.4 13 32.2C13 34 13 36.6 19.6 36.6C26 36.6 27 35.8 27 33.1C27 31.3 25 28.6 20 28.6Z" fill="#F5F5F5"/>
<path d="M20.5 36.1C22.9853 36.1 25 34.0853 25 31.6C25 29.1147 22.9853 27.1 20.5 27.1C18.0147 27.1 16 29.1147 16 31.6C16 34.0853 18.0147 36.1 20.5 36.1Z" fill="#0A84A5"/>
<path d="M22 31.6C22 32.4 21.3 33.1 20.5 33.1C19.7 33.1 19 32.4 19 31.6C19 30.8 19.7 30.1 20.5 30.1C21.3 30.1 22 30.8 22 31.6Z" fill="#231F20"/>
<path d="M13 32.1C13 25.1 27 25.1 27 33.1C25 27.1 15 27.1 13 32.1Z" fill="#664E27"/>
<path d="M44 28.6C49 28.6 51 30.4 51 32.2C51 34 51 36.6 44.4 36.6C38 36.6 37 35.8 37 33.1C37 31.3 39 28.6 44 28.6Z" fill="#F5F5F5"/>
<path d="M43.5 36.1C45.9853 36.1 48 34.0853 48 31.6C48 29.1147 45.9853 27.1 43.5 27.1C41.0147 27.1 39 29.1147 39 31.6C39 34.0853 41.0147 36.1 43.5 36.1Z" fill="#0A84A5"/>
<path d="M42 31.6C42 32.4 42.7 33.1 43.5 33.1C44.3 33.1 45 32.4 45 31.6C45 30.8 44.3 30.1 43.5 30.1C42.7 30.1 42 30.8 42 31.6Z" fill="#231F20"/>
<path d="M51 32.1C51 25.1 37 25.1 37 33.1C39 27.1 49 27.1 51 32.1Z" fill="#664E27"/>
<path d="M32.0004 45C27.8004 45 25.7004 42 27.8004 42H36.2004C38.3004 42 36.2004 45 32.0004 45Z" fill="#E6B796"/>
</svg>
