<svg width="36" height="36" viewBox="0 0 36 36" fill="none" xmlns="http://www.w3.org/2000/svg">
<g clip-path="url(#clip0_26:67)">
<path d="M0 27C0 28.0609 0.421427 29.0783 1.17157 29.8284C1.92172 30.5786 2.93913 31 4 31H32C33.0609 31 34.0783 30.5786 34.8284 29.8284C35.5786 29.0783 36 28.0609 36 27V26.5H0V27Z" fill="#880082"/>
<path d="M0 22.0701H36V26.6701H0V22.0701Z" fill="#3558A0"/>
<path d="M0 17.8301H36V22.3301H0V17.8301Z" fill="#138F3E"/>
<path d="M0 13.5H36V18H0V13.5Z" fill="#FAD220"/>
<path d="M0 9.16992H36V13.6699H0V9.16992Z" fill="#FF5000"/>
<path d="M32 5H4C2.93913 5 1.92172 5.42143 1.17157 6.17157C0.421427 6.92172 0 7.93913 0 9L0 9.33H36V9C36 7.93913 35.5786 6.92172 34.8284 6.17157C34.0783 5.42143 33.0609 5 32 5V5Z" fill="#FF000E"/>
</g>
<defs>
<clipPath id="clip0_26:67">
<rect width="36" height="36" fill="white"/>
</clipPath>
</defs>
</svg>
