<svg width="231" height="37" viewBox="0 0 231 37" fill="none" xmlns="http://www.w3.org/2000/svg">
<path d="M2.944 18.2C2.944 21.048 3.552 23.576 4.768 25.784C5.984 27.96 7.616 29.672 9.664 30.92C11.712 32.136 14 32.744 16.528 32.744C18.896 32.744 20.96 32.344 22.72 31.544C24.512 30.712 26.048 29.576 27.328 28.136V31.688C25.92 32.936 24.384 33.88 22.72 34.52C21.056 35.128 18.992 35.432 16.528 35.432C14.192 35.432 12.032 35.016 10.048 34.184C8.064 33.32 6.32 32.12 4.816 30.584C3.344 29.048 2.192 27.224 1.36 25.112C0.528 23 0.112 20.696 0.112 18.2C0.112 15.704 0.528 13.4 1.36 11.288C2.192 9.176 3.344 7.352 4.816 5.816C6.32 4.28 8.064 3.096 10.048 2.264C12.032 1.4 14.192 0.967998 16.528 0.967998C18.992 0.967998 21.056 1.288 22.72 1.928C24.384 2.536 25.92 3.464 27.328 4.712V8.216C26.08 6.776 24.544 5.656 22.72 4.856C20.928 4.056 18.864 3.656 16.528 3.656C14.032 3.656 11.744 4.28 9.664 5.528C7.616 6.744 5.984 8.44 4.768 10.616C3.552 12.792 2.944 15.32 2.944 18.2ZM32.9714 18.2C32.9714 15.736 33.3874 13.464 34.2194 11.384C35.0514 9.272 36.2194 7.448 37.7234 5.912C39.2274 4.344 40.9874 3.128 43.0034 2.264C45.0514 1.4 47.2754 0.967998 49.6754 0.967998C52.0754 0.967998 54.2834 1.4 56.2994 2.264C58.3474 3.128 60.1234 4.344 61.6274 5.912C63.1314 7.448 64.2994 9.272 65.1314 11.384C65.9634 13.464 66.3794 15.736 66.3794 18.2C66.3794 20.664 65.9634 22.952 65.1314 25.064C64.2994 27.144 63.1314 28.968 61.6274 30.536C60.1234 32.072 58.3474 33.272 56.2994 34.136C54.2834 35 52.0754 35.432 49.6754 35.432C47.2754 35.432 45.0514 35 43.0034 34.136C40.9874 33.272 39.2274 32.072 37.7234 30.536C36.2194 28.968 35.0514 27.144 34.2194 25.064C33.3874 22.952 32.9714 20.664 32.9714 18.2ZM35.7554 18.2C35.7554 20.984 36.3474 23.48 37.5314 25.688C38.7474 27.896 40.3954 29.64 42.4754 30.92C44.5874 32.168 46.9874 32.792 49.6754 32.792C52.3634 32.792 54.7474 32.168 56.8274 30.92C58.9394 29.64 60.5874 27.896 61.7714 25.688C62.9554 23.48 63.5474 20.984 63.5474 18.2C63.5474 15.384 62.9554 12.888 61.7714 10.712C60.5874 8.504 58.9394 6.776 56.8274 5.528C54.7474 4.248 52.3634 3.608 49.6754 3.608C46.9874 3.608 44.5874 4.248 42.4754 5.528C40.3954 6.776 38.7474 8.504 37.5314 10.712C36.3474 12.888 35.7554 15.384 35.7554 18.2ZM72.4851 1.4H75.1251V32.504H88.9971V35H72.4851V1.4ZM93.7195 1.4H96.3595V32.504H110.232V35H93.7195V1.4ZM114.954 1.4H133.002V3.896H117.594V15.32H132.042V17.816H117.594V32.504H133.002V35H114.954V1.4ZM141.507 18.2C141.507 21.048 142.115 23.576 143.331 25.784C144.547 27.96 146.179 29.672 148.227 30.92C150.275 32.136 152.563 32.744 155.091 32.744C157.459 32.744 159.523 32.344 161.283 31.544C163.075 30.712 164.611 29.576 165.891 28.136V31.688C164.483 32.936 162.947 33.88 161.283 34.52C159.619 35.128 157.555 35.432 155.091 35.432C152.755 35.432 150.595 35.016 148.611 34.184C146.627 33.32 144.883 32.12 143.379 30.584C141.907 29.048 140.755 27.224 139.923 25.112C139.091 23 138.675 20.696 138.675 18.2C138.675 15.704 139.091 13.4 139.923 11.288C140.755 9.176 141.907 7.352 143.379 5.816C144.883 4.28 146.627 3.096 148.611 2.264C150.595 1.4 152.755 0.967998 155.091 0.967998C157.555 0.967998 159.619 1.288 161.283 1.928C162.947 2.536 164.483 3.464 165.891 4.712V8.216C164.643 6.776 163.107 5.656 161.283 4.856C159.491 4.056 157.427 3.656 155.091 3.656C152.595 3.656 150.307 4.28 148.227 5.528C146.179 6.744 144.547 8.44 143.331 10.616C142.115 12.792 141.507 15.32 141.507 18.2ZM168.641 3.896V1.4H188.945V3.896H180.113V35H177.473V3.896H168.641ZM193.561 1.4H196.201V35H193.561V1.4ZM215.389 30.152L227.245 1.4H230.221L215.389 36.296L200.557 1.4H203.533L215.389 30.152Z" fill="white"/>
</svg>
