<svg width="48" height="48" viewBox="0 0 48 48" fill="none" xmlns="http://www.w3.org/2000/svg">
<path fill-rule="evenodd" clip-rule="evenodd" d="M28 44H20C18.3981 44 16.7962 41.7547 15.4513 38.5487L10 44L8 42V34L12.7651 29.2349C12.2797 26.6503 12 24.1154 12 22C12 14 18 4 24 4C30 4 36 14 36 22C36 24.1154 35.7203 26.6503 35.2349 29.2349L40 34V42L38 44L32.5487 38.5487C31.2038 41.7547 29.6019 44 28 44ZM24 40H27.2305C27.3338 39.8716 27.4549 39.7051 27.5871 39.5024C28.2815 38.4377 29.0263 36.7718 29.7053 34.7351C31.0895 30.5823 32 25.5097 32 22C32 15.6034 27.1121 8 24 8C20.8879 8 16 15.6034 16 22C16 25.5097 16.9105 30.5823 18.2947 34.7351C18.9737 36.7718 19.7185 38.4377 20.4129 39.5024C20.5451 39.7051 20.6662 39.8716 20.7695 40H24ZM24 24C26.2091 24 28 22.2091 28 20C28 17.7909 26.2091 16 24 16C21.7909 16 20 17.7909 20 20C20 22.2091 21.7909 24 24 24Z" fill="black"/>
</svg>
