<svg width="64" height="64" viewBox="0 0 64 64" fill="none" xmlns="http://www.w3.org/2000/svg">
<path d="M14.0996 55.2C23.8996 68.2 51.6996 58.5 53.7996 59.4C53.7996 59.4 54.0996 57.5 52.9996 56.3C54.3996 55.3 56.0996 57 56.0996 57C56.0996 57 57.8996 52.8 55.9996 50.2C58.9996 46.3 55.3996 26 55.3996 26L9.49959 26C9.49959 26 3.99959 41.9 10.2996 52.7C11.5996 55.2 12.9996 53.7 14.0996 55.2Z" fill="#DBB471"/>
<path d="M9.00039 34.4C9.20039 33.3 9.40039 32.3 9.70039 31.7C10.2004 30.7 11.3004 30.1 11.3004 30.1C11.3004 30.1 11.0004 32.2 11.1004 35.2C12.5004 55.3 18.4004 45.7 32.0004 45.7C45.6004 45.7 51.5004 55.3 52.8004 35.1C52.9004 32.2 52.6004 30 52.6004 30C52.6004 30 53.7004 30.6 54.2004 31.6C54.5004 32.2 54.7004 33.2 54.9004 34.3C56.7004 34.8 58.9004 34.4 58.9004 29.1C58.9004 25.8 57.7004 23.2 53.8004 22.9C52.1004 9.7 49.1004 7.6 39.2004 2.9C36.7004 1.7 35.0004 1.99999 32.0004 1.99999C29.0004 1.99999 27.3004 1.69999 24.7004 2.89999C14.7004 7.59999 11.7004 9.69999 10.1004 22.9C6.20039 23.2 5.00039 25.9 5.00039 29.1C5.00039 34.4 7.30039 34.8 9.00039 34.4Z" fill="#FFE1BD"/>
<path d="M23 15.1C23 11.7 27.5 10 32 10C36.5 10 41 11.7 41 15.1C41 15.1 41 16 40.1 16L23.9 16C23 16 23 15.1 23 15.1Z" fill="#664E27"/>
<path d="M44 35.4C49 35.4 51 33.6 51 31.8C51 30 51 27.4 44.4 27.4C38 27.4 37 28.2 37 30.9C37 32.7 39 35.4 44 35.4Z" fill="#F5F5F5"/>
<path d="M43.5 27.9C41.0147 27.9 39 29.9147 39 32.4C39 34.8853 41.0147 36.9 43.5 36.9C45.9853 36.9 48 34.8853 48 32.4C48 29.9147 45.9853 27.9 43.5 27.9Z" fill="#0A84A5"/>
<path d="M42 32.4C42 31.6 42.7 30.9 43.5 30.9C44.3 30.9 45 31.6 45 32.4C45 33.2 44.3 33.9 43.5 33.9C42.7 33.9 42 33.2 42 32.4Z" fill="#231F20"/>
<path d="M51 31.9C51 38.9 37 38.9 37 30.9C39 36.9 49 36.9 51 31.9Z" fill="#664E27"/>
<path d="M20 35.4C15 35.4 13 33.6 13 31.8C13 30 13 27.4 19.6 27.4C26 27.4 27 28.2 27 30.9C27 32.7 25 35.4 20 35.4Z" fill="#F5F5F5"/>
<path d="M20.5 27.9C18.0147 27.9 16 29.9147 16 32.4C16 34.8853 18.0147 36.9 20.5 36.9C22.9853 36.9 25 34.8853 25 32.4C25 29.9147 22.9853 27.9 20.5 27.9Z" fill="#0A84A5"/>
<path d="M22 32.4C22 31.6 21.3 30.9 20.5 30.9C19.7 30.9 19 31.6 19 32.4C19 33.2 19.7 33.9 20.5 33.9C21.3 33.9 22 33.2 22 32.4Z" fill="#231F20"/>
<path d="M13 31.9C13 38.9 27 38.9 27 30.9C25 36.9 15 36.9 13 31.9Z" fill="#664E27"/>
<path d="M31.9996 19C36.1996 19 38.2996 22 36.1996 22L27.7996 22C25.6996 22 27.7996 19 31.9996 19Z" fill="#E6B796"/>
</svg>
